# xmcd
#
# Track frame offsets:
#	150
#	23375
#	42321
#	58749
#	78394
#	97657
#	114134
#	135627
#	150933
#	173335
#
# Disc length: 2626 seconds
#
# Revision: 1
# Processed by: cddbd v1.5.2PL0 Copyright (c) Steve Scherf et al.
# Submitted via: audiograbber 1.83.01
#
DISCID=5e0a400a
DTITLE=Darren Eedens - Of my word
DYEAR=2014
DGENRE=
TTITLE0=Of my word
TTITLE1=Finally oh finally
TTITLE2=Angel on the ground
TTITLE3=Movin on
TTITLE4=Darlin
TTITLE5=on the line (Laundry Song)
TTITLE6=Nothin else I know
TTITLE7=Have to have a nightmare
TTITLE8=This stone
TTITLE9=Please don't call
EXTD=
EXTT0=
EXTT1=
EXTT2=
EXTT3=
EXTT4=
EXTT5=
EXTT6=
EXTT7=
EXTT8=
EXTT9=
PLAYORDER=
